<?xml version="1.0" encoding="UTF-8" standalone="no"?>
<svg
   xmlns:dc="http://purl.org/dc/elements/1.1/"
   xmlns:cc="http://creativecommons.org/ns#"
   xmlns:rdf="http://www.w3.org/1999/02/22-rdf-syntax-ns#"
   xmlns:svg="http://www.w3.org/2000/svg"
   xmlns="http://www.w3.org/2000/svg"
   xmlns:sodipodi="http://sodipodi.sourceforge.net/DTD/sodipodi-0.dtd"
   xmlns:inkscape="http://www.inkscape.org/namespaces/inkscape"
   class="img-fluid"
   id="outputsvg"
   width="152.15533"
   height="153.06108"
   viewBox="0 0 1521.5533 1530.6108"
   version="1.1"
   sodipodi:docname="logo_cook.svg"
   inkscape:version="0.92.5 (2060ec1f9f, 2020-04-08)">
  <metadata
     id="metadata838">
    <rdf:RDF>
      <cc:Work
         rdf:about="">
        <dc:format>image/svg+xml</dc:format>
        <dc:type
           rdf:resource="http://purl.org/dc/dcmitype/StillImage" />
        <dc:title></dc:title>
      </cc:Work>
    </rdf:RDF>
  </metadata>
  <defs
     id="defs836">
    <inkscape:path-effect
       effect="bspline"
       id="path-effect1154"
       is_visible="true"
       weight="33.333333"
       steps="2"
       helper_size="0"
       apply_no_weight="true"
       apply_with_weight="true"
       only_selected="false" />
    <clipPath
       id="clipPath1549"
       clipPathUnits="userSpaceOnUse">
      <path
         inkscape:connector-curvature="0"
         id="path1547"
         d="M 12804.7,0 H 5304.67 v 5000 h 7500.03 z" />
    </clipPath>
    <clipPath
       id="clipPath1705"
       clipPathUnits="userSpaceOnUse">
      <path
         inkscape:connector-curvature="0"
         id="path1703"
         d="M 5000,0 H 0 v 5000 h 5000 z" />
    </clipPath>
    <clipPath
       id="clipPath1711"
       clipPathUnits="userSpaceOnUse">
      <path
         inkscape:connector-curvature="0"
         id="path1709"
         d="M 6250,0 H -1250 V 5000 H 6250 Z" />
    </clipPath>
  </defs>
  <sodipodi:namedview
     pagecolor="#ffffff"
     bordercolor="#666666"
     borderopacity="1"
     objecttolerance="10"
     gridtolerance="10"
     guidetolerance="10"
     inkscape:pageopacity="0"
     inkscape:pageshadow="2"
     inkscape:window-width="1864"
     inkscape:window-height="1043"
     id="namedview834"
     showgrid="false"
     inkscape:zoom="2.9421769"
     inkscape:cx="-14.290027"
     inkscape:cy="64.989873"
     inkscape:window-x="56"
     inkscape:window-y="0"
     inkscape:window-maximized="1"
     inkscape:current-layer="outputsvg" />
  <rect
     style="fill:#f64000;fill-opacity:0.92344498;stroke-width:15.06879711;stroke-linecap:butt;stroke-linejoin:round;stroke-miterlimit:4;stroke-dasharray:none"
     id="rect924"
     width="1527.1907"
     height="1530.5896"
     x="0"
     y="0.02124982"
     ry="165.46918" />
  <g
     id="l6Gxc1VmF5uBMyK8neDAV25"
     style="fill:#3d4459"
     transform="matrix(1.0766099,0,0,1.0004733,1155.7891,1738.5682)">
    <g
       id="g823"
       transform="matrix(1.763865,0,0,1.4418712,-2235.6157,-1862.8256)"
       style="fill:#ffffff">
      <g
         id="g2171">
        <path
           style="fill:#ffffff;fill-opacity:1;stroke-width:1.43517745"
           inkscape:connector-curvature="0"
           d="m 1102.7908,750.47002 c -10.1324,-24.39376 -8.8659,-37.40377 5.0662,-52.04001 26.5976,-29.2725 59.5281,-6.50501 54.4618,35.7775 -5.0662,47.16125 -43.0628,56.91875 -59.528,16.26251 z"
           id="pl7MY42oo" />
        <path
           sodipodi:nodetypes="ccc"
           style="fill:#ffffff;fill-opacity:1;stroke-width:1.43517745"
           inkscape:connector-curvature="0"
           d="m 923.38607,681.17027 c -8.07595,-83.64104 94.39933,-67.11868 63.8003,3.83054 -20.00632,40.50988 -54.54206,38.37179 -63.8003,-3.83054 z"
           id="phsgUYbdE" />
        <path
           sodipodi:nodetypes="ccccccccccccccccccc"
           d="m 876.77256,842.26313 c 25.40588,53.76494 81.15651,109.07681 143.69614,126.09167 62.9284,17.12007 127.5904,-0.35889 179.4817,-43.69899 13.7035,-11.44428 26.5521,-24.27267 38.7105,-38.56251 6.0917,-7.15969 11.8025,-14.85013 17.5443,-22.52807 5.9272,-7.92542 12.2239,-15.14805 18.1262,-23.08185 -4.4357,-5.84949 -9.4332,-10.49724 -14.2462,-15.72386 -6.5895,-7.15722 0.8998,-18.07836 7.2644,-14.06417 8.9743,5.65739 16.5722,17.25517 21.8675,28.69607 4.1199,8.90164 10.8001,23.46466 3.6123,30.84465 -2.2902,2.35338 -6.3128,-0.98744 -6.2703,-5.01347 0.05,-4.79011 -2.8826,-10.69627 -5.9943,-15.715 -3.0801,8.74041 -6.0489,17.13906 -10.2039,24.98527 -4.5375,8.56833 -9.5527,16.49027 -14.8634,24.12185 -10.625,15.26657 -22.5689,28.66018 -35.2161,40.66318 -25.1803,23.89414 -54.4409,40.99131 -84.6137,51.09727 -66.5735,22.29973 -142.15079,9.92133 -204.63629,-43.33882 -31.52035,-26.86513 -47.02662,-43.85059 -66.2719,-88.0866 -6.28078,-14.43799 -23.14707,-107.83546 -6.42735,-54.99231"
           style="fill:#ffffff;fill-opacity:1;fill-rule:nonzero;stroke:none;stroke-width:0.16245127"
           id="path1727"
           inkscape:connector-curvature="0" />
        <path
           style="fill:#ffffff;fill-opacity:1;stroke-width:0.90270448"
           inkscape:connector-curvature="0"
           d="m 1286.0542,794.17273 c 17.034,-119.97757 -73.5155,-241.77297 -197.2367,-268.13168 -60.0675,-12.72489 -121.9281,0 -181.99568,37.26577 -43.03341,26.35871 -43.03341,26.35871 -6.27564,-7.27138 31.37852,-29.08547 37.65426,-40.90144 42.13687,-79.98505 4.4827,-45.44605 4.4827,-45.44605 -34.96461,-69.98691 -51.10226,-31.81225 -75.30858,-72.71368 -75.30858,-128.15786 0,-89.98319 63.65361,-160.87903 146.13441,-160.87903 24.20633,0 51.10223,4.5446 60.96413,9.08921 13.4479,8.18029 25.1027,3.63568 60.964,-25.44979 24.2062,-19.087344 61.8606,-40.901458 85.1703,-47.263905 35.8614,-9.998131 46.6197,-9.08921 82.4809,4.544605 51.1022,19.996262 104.894,75.44046 125.5142,129.97572 8.9653,25.44979 29.5854,55.44418 50.2057,73.6226 43.9299,38.17468 60.9641,71.80477 60.9641,119.06865 0,71.80476 -46.6197,117.25082 -148.8241,146.33629 -32.275,9.08921 -65.4467,21.8141 -72.6189,28.17655 -15.241,12.7249 -12.5514,46.35497 10.7583,128.15785 11.655,43.6282 12.5515,60.8977 4.4827,101.79915 -12.5514,59.98878 -19.7236,65.44231 -12.5514,9.08921 z m -14.3445,-269.0406 c 9.8618,-18.17842 -39.4473,-72.71369 -84.2738,-92.70995 -78.8947,-35.44792 -75.3086,-32.72116 -41.2405,-27.26762 47.5161,7.27136 98.6184,32.72115 141.6519,69.07799 37.6542,32.72116 49.3091,34.539 104.894,19.08734 9.8618,-3.63568 33.1715,-19.99626 51.9987,-38.17468 27.7924,-28.17655 33.1717,-38.17469 33.1717,-71.80477 0,-32.72115 -5.3793,-45.44605 -33.1717,-76.34935 -34.0682,-38.17469 -34.0682,-38.17469 -48.4126,-5.45354 -16.1375,38.17469 -40.3439,67.26017 -66.3433,80.89398 -14.3444,8.18028 -14.3444,5.45353 5.3793,-16.36058 74.4119,-85.43858 53.7918,-199.96263 -45.7231,-251.77112 -69.9294,-35.447937 -110.2732,-28.176559 -180.2026,36.35683 -34.0681,31.81224 -34.0681,31.81224 -60.964,12.72489 -40.3439,-29.08546 -91.44612,-25.44978 -130.89343,9.08922 -82.48082,73.6226 -75.30858,155.42549 21.51669,226.32134 43.03349,31.81223 43.03349,31.81223 30.48201,60.89771 -18.82714,46.35497 -16.13757,58.17094 11.65486,48.1728 43.03347,-17.26949 129.99687,-10.90704 178.40957,12.7249 25.1029,11.81598 52.8953,28.17655 62.7572,35.44792 18.8271,15.45166 26.8959,9.99813 49.3091,-30.90331 z"
           id="pxoGgNv7Y" />
      </g>
    </g>
  </g>
</svg>
